<svg width="645" height="534" viewBox="0 0 645 534" fill="none" xmlns="http://www.w3.org/2000/svg">
<g filter="url(#filter0_d)">
<path d="M604.27 10.4505L76.0203 32.6282C71.0061 32.8387 66.9246 36.7331 66.4792 41.7319L30.9158 440.87C30.4147 446.494 34.6654 451.417 40.302 451.741L590.829 483.409C596.453 483.733 601.234 479.35 601.399 473.719L614.685 20.7348C614.855 14.934 610.068 10.2071 604.27 10.4505Z" fill="white"/>
</g>
<path d="M89.4398 148.212L316.842 141.098C320.006 140.999 322.936 139.408 324.742 136.808L326.787 133.864C331.444 127.161 326.542 118.004 318.382 118.161L90.1505 122.543C85.5074 122.632 81.5366 125.906 80.5642 130.447L79.3488 136.123C77.9889 142.473 82.9486 148.415 89.4398 148.212Z" fill="#F7F3F3"/>
<path d="M85.7934 186.089L384.1 177.241C386.612 177.166 389.022 176.131 390.817 174.374C397.296 168.033 392.791 156.918 383.728 157.112L86.1311 163.488C81.8796 163.579 78.1507 166.349 76.8356 170.393L75.9872 173.001C73.8471 179.582 78.8767 186.295 85.7934 186.089Z" fill="#F7F3F3"/>
<path d="M69.6187 380.171L178.187 382.072C182.148 382.141 185.776 379.866 187.439 376.27L187.546 376.039C190.541 369.562 185.982 362.121 178.85 361.849L70.5883 357.726C65.5666 357.535 61.183 361.1 60.3471 366.055L59.933 368.509C58.9156 374.541 63.503 380.064 69.6187 380.171Z" fill="#F7F3F3"/>
<path d="M74.3524 299.689L372.786 301.256C375.299 301.269 377.743 300.319 379.599 298.625C386.295 292.515 382.181 281.249 373.117 281.127L75.4787 277.112C71.2266 277.055 67.4033 279.693 65.9478 283.689L65.0089 286.266C62.6404 292.768 67.4327 299.652 74.3524 299.689Z" fill="#F7F3F3"/>
<path d="M82.2069 225.1L340.599 217.305C343.343 217.222 345.952 215.992 347.78 213.944C353.595 207.425 348.952 196.987 340.218 197.168L82.4271 202.513C78.024 202.604 74.1989 205.565 73.0073 209.805L72.2783 212.399C70.4516 218.899 75.4584 225.304 82.2069 225.1Z" fill="#F7F3F3"/>
<path d="M73.2196 340.32L423.141 339.276C425.398 339.269 427.602 338.486 429.366 337.078C436.743 331.191 432.746 319.19 423.308 319.151L74.3016 317.724C70.2367 317.707 66.5662 320.153 65.0162 323.911L63.9453 326.507C61.2253 333.101 66.0864 340.341 73.2196 340.32Z" fill="#F7F3F3"/>
<path d="M78.5171 260.165L510.656 259.112C512.586 259.107 514.487 258.535 516.104 257.482C524.427 252.062 520.776 239.029 510.844 238.996L79.8444 237.557C76.0602 237.544 72.593 239.669 70.8861 243.046L69.5679 245.654C66.2014 252.315 71.0538 260.183 78.5171 260.165Z" fill="#F7F3F3"/>
<path d="M104.21 51.5045L100.552 64.2762L98.6634 64.3587L94.7898 54.4562L91.7939 64.6586L89.8698 64.7426L85.1122 52.3383L86.9644 52.2575L90.8099 62.3413L93.9058 51.9544L95.5602 51.8822L99.48 62.0168L102.502 51.5791L104.21 51.5045ZM107.647 56.0209C107.923 55.4563 108.348 55.0174 108.923 54.704C109.498 54.3906 110.205 54.2156 111.044 54.179L111.117 55.8514C111.02 55.8436 110.888 55.8433 110.721 55.8507C109.785 55.8915 109.06 56.2054 108.546 56.7924C108.042 57.3669 107.813 58.1697 107.858 59.2007L108.065 63.9482L106.339 64.0236L105.923 54.4926L107.577 54.4204L107.647 56.0209ZM113.176 54.176L114.902 54.1006L115.318 63.6315L113.592 63.7069L113.176 54.176ZM113.959 52.304C113.623 52.3187 113.337 52.2231 113.099 52.0172C112.874 51.8109 112.755 51.5518 112.741 51.2401C112.727 50.9284 112.824 50.66 113.03 50.4348C113.248 50.197 113.525 50.0708 113.861 50.0562C114.196 50.0415 114.477 50.1374 114.702 50.3438C114.939 50.5376 115.064 50.7904 115.077 51.1021C115.091 51.4258 114.99 51.7065 114.772 51.9442C114.565 52.1694 114.294 52.2894 113.959 52.304ZM123.949 62.6962C123.706 62.923 123.402 63.1044 123.036 63.2405C122.669 63.3646 122.287 63.4353 121.892 63.4526C120.933 63.4945 120.178 63.2692 119.628 62.7767C119.078 62.2842 118.782 61.5584 118.74 60.5994L118.512 55.3663L116.893 55.437L116.831 54.0164L118.45 53.9457L118.359 51.8597L120.085 51.7843L120.176 53.8703L122.91 53.751L122.972 55.1716L120.238 55.291L120.464 60.4521C120.486 60.9676 120.629 61.3577 120.893 61.6224C121.169 61.8867 121.547 62.0083 122.026 61.9874C122.554 61.9643 122.997 61.7948 123.355 61.4789L123.949 62.6962ZM134.152 58.0887C134.158 58.2206 134.154 58.3949 134.139 58.6118L126.406 58.9494C126.551 59.7839 126.946 60.4453 127.592 60.9336C128.249 61.4093 129.046 61.6268 129.981 61.586C131.12 61.5363 132.02 61.1126 132.682 60.315L133.684 61.3883C133.274 61.9107 132.751 62.3178 132.116 62.6099C131.492 62.9013 130.784 63.0644 129.993 63.0989C128.986 63.1429 128.084 62.9781 127.287 62.6045C126.489 62.2189 125.858 61.6639 125.394 60.9394C124.942 60.2145 124.696 59.3844 124.655 58.4493C124.615 57.5262 124.782 56.6841 125.157 55.923C125.544 55.1614 126.089 54.5611 126.79 54.1221C127.503 53.6705 128.315 53.4249 129.226 53.3851C130.138 53.3453 130.956 53.5198 131.682 53.9085C132.419 54.2847 133.001 54.8358 133.429 55.5618C133.869 56.2873 134.11 57.1296 134.152 58.0887ZM129.29 54.8417C128.463 54.8778 127.778 55.1599 127.237 55.6881C126.707 56.2157 126.413 56.8892 126.352 57.7086L132.466 57.4416C132.335 56.6426 131.977 56.0036 131.392 55.5247C130.818 55.0333 130.117 54.8056 129.29 54.8417ZM149.602 52.5855L145.439 63.2713C145.073 64.2602 144.624 64.9645 144.089 65.3842C143.567 65.8034 142.922 66.0297 142.155 66.0632C141.688 66.0836 141.229 66.0256 140.778 65.8891C140.34 65.7641 139.971 65.564 139.671 65.2888L140.352 63.9619C140.864 64.408 141.443 64.6169 142.091 64.5886C142.51 64.5703 142.853 64.4412 143.119 64.2014C143.397 63.9731 143.638 63.5842 143.843 63.0347L144.119 62.356L139.496 53.0268L141.294 52.9483L144.954 60.4278L147.912 52.6594L149.602 52.5855ZM155.453 61.9873C154.506 62.0286 153.646 61.856 152.872 61.4694C152.098 61.0828 151.48 60.5332 151.016 59.8208C150.564 59.0958 150.318 58.2657 150.277 57.3306C150.236 56.3955 150.41 55.5532 150.797 54.8035C151.196 54.0414 151.765 53.44 152.502 52.9995C153.239 52.5469 154.081 52.2999 155.028 52.2586C155.975 52.2172 156.83 52.3901 157.591 52.7773C158.364 53.1519 158.977 53.7017 159.429 54.4267C159.893 55.1391 160.145 55.9629 160.186 56.898C160.226 57.8331 160.047 58.6818 159.648 59.4439C159.26 60.1935 158.698 60.7946 157.961 61.2472C157.236 61.6992 156.4 61.9459 155.453 61.9873ZM155.387 60.4767C155.999 60.45 156.538 60.2884 157.005 59.9917C157.484 59.6825 157.851 59.2701 158.105 58.7546C158.358 58.227 158.47 57.6336 158.441 56.9742C158.412 56.3148 158.249 55.7394 157.951 55.2479C157.653 54.7444 157.252 54.3656 156.749 54.1113C156.257 53.8565 155.706 53.7424 155.094 53.7691C154.483 53.7958 153.937 53.9578 153.458 54.255C152.99 54.5516 152.624 54.964 152.359 55.4921C152.105 56.0076 151.993 56.5951 152.021 57.2545C152.05 57.9139 152.214 58.4953 152.512 58.9987C152.822 59.4897 153.223 59.8686 153.715 60.1354C154.218 60.3896 154.776 60.5034 155.387 60.4767ZM171.249 51.6405L171.665 61.1714L170.028 61.2428L169.965 59.8042C169.639 60.3109 169.194 60.7147 168.631 61.0156C168.079 61.3039 167.467 61.4627 166.796 61.492C165.525 61.5475 164.509 61.2436 163.747 60.5802C162.985 59.9048 162.574 58.8837 162.515 57.517L162.275 52.0322L164.001 51.9569L164.232 57.2438C164.273 58.167 164.525 58.8586 164.99 59.3188C165.454 59.767 166.099 59.973 166.926 59.9369C167.837 59.8971 168.545 59.59 169.048 59.0155C169.552 58.441 169.781 57.6502 169.737 56.6431L169.522 51.7158L171.249 51.6405ZM188.189 55.7294C188.194 55.8613 188.19 56.0357 188.175 56.2525L180.443 56.5901C180.587 57.4246 180.983 58.086 181.629 58.5743C182.286 59.0501 183.082 59.2675 184.017 59.2267C185.156 59.177 186.057 58.7533 186.718 57.9557L187.72 59.029C187.311 59.5514 186.788 59.9586 186.152 60.2506C185.528 60.5421 184.82 60.7051 184.029 60.7396C183.022 60.7836 182.12 60.6188 181.323 60.2452C180.526 59.8596 179.895 59.3046 179.431 58.5802C178.979 57.8552 178.732 57.0252 178.691 56.09C178.651 55.1669 178.818 54.3248 179.194 53.5637C179.581 52.8021 180.125 52.2018 180.827 51.7628C181.54 51.3113 182.352 51.0656 183.263 51.0258C184.174 50.986 184.992 51.1605 185.718 51.5492C186.455 51.9254 187.038 52.4765 187.466 53.2026C187.906 53.9281 188.147 54.7703 188.189 55.7294ZM183.326 52.4824C182.499 52.5185 181.815 52.8007 181.273 53.3288C180.744 53.8564 180.449 54.5299 180.389 55.3493L186.503 55.0824C186.372 54.2833 186.014 53.6443 185.428 53.1654C184.854 52.674 184.154 52.4463 183.326 52.4824ZM193.53 60.3248C192.75 60.3589 191.997 60.2897 191.268 60.1173C190.54 59.9329 189.964 59.6877 189.543 59.3818L190.202 57.9837C190.635 58.2651 191.155 58.4827 191.762 58.6363C192.37 58.79 192.979 58.8535 193.59 58.8268C195.101 58.7608 195.837 58.2962 195.8 57.4331C195.787 57.1453 195.675 56.922 195.464 56.7631C195.253 56.6041 194.99 56.4955 194.675 56.4372C194.372 56.3663 193.936 56.2953 193.369 56.224C192.596 56.1376 191.961 56.0272 191.462 55.8928C190.976 55.7579 190.551 55.5122 190.187 55.1557C189.823 54.7993 189.627 54.2853 189.597 53.614C189.56 52.7508 189.889 52.0458 190.586 51.4988C191.282 50.9399 192.236 50.6341 193.447 50.5812C194.082 50.5534 194.721 50.6036 195.363 50.7317C196.005 50.8598 196.536 51.0469 196.955 51.2928L196.277 52.6917C195.476 52.2222 194.548 52.0105 193.493 52.0566C192.762 52.0885 192.209 52.2327 191.836 52.4892C191.463 52.7458 191.285 53.0718 191.302 53.4675C191.316 53.7792 191.435 54.0202 191.658 54.1906C191.882 54.361 192.151 54.4814 192.467 54.5517C192.794 54.6215 193.248 54.6978 193.828 54.7805C194.601 54.8789 195.225 54.9958 195.699 55.1313C196.185 55.2542 196.604 55.4881 196.955 55.8331C197.306 56.1781 197.496 56.6743 197.524 57.3217C197.562 58.1849 197.221 58.8905 196.5 59.4384C195.791 59.9739 194.8 60.2693 193.53 60.3248ZM202.539 59.9315C201.759 59.9655 201.006 59.8963 200.277 59.7239C199.549 59.5395 198.973 59.2944 198.552 58.9885L199.211 57.5904C199.644 57.8718 200.164 58.0893 200.771 58.243C201.379 58.3966 201.988 58.4601 202.599 58.4334C204.11 58.3675 204.846 57.9029 204.809 57.0397C204.796 56.752 204.684 56.5287 204.473 56.3697C204.262 56.2108 203.999 56.1021 203.684 56.0438C203.381 55.973 202.945 55.9019 202.378 55.8306C201.605 55.7442 200.97 55.6338 200.471 55.4994C199.985 55.3645 199.56 55.1188 199.196 54.7624C198.832 54.4059 198.636 53.892 198.606 53.2206C198.569 52.3575 198.898 51.6524 199.595 51.1055C200.291 50.5466 201.245 50.2407 202.456 50.1878C203.091 50.1601 203.73 50.2103 204.372 50.3384C205.014 50.4665 205.545 50.6535 205.964 50.8995L205.286 52.2984C204.485 51.8289 203.557 51.6172 202.502 51.6632C201.771 51.6952 201.218 51.8394 200.845 52.0959C200.472 52.3524 200.294 52.6785 200.311 53.0741C200.325 53.3858 200.444 53.6269 200.667 53.7973C200.891 53.9677 201.16 54.088 201.476 54.1584C201.803 54.2281 202.257 54.3044 202.837 54.3872C203.61 54.4856 204.234 54.6025 204.708 54.7379C205.194 54.8608 205.613 55.0948 205.964 55.4398C206.315 55.7848 206.505 56.281 206.533 56.9284C206.571 57.7916 206.23 58.4971 205.509 59.0451C204.8 59.5805 203.809 59.876 202.539 59.9315ZM211.86 49.7772C213.179 49.7197 214.2 49.9994 214.924 50.6164C215.659 51.2329 216.055 52.1825 216.111 53.4653L216.362 59.2198L214.726 59.2913L214.671 58.0325C214.403 58.4886 214.004 58.8484 213.475 59.1117C212.957 59.3625 212.333 59.5039 211.602 59.5358C210.535 59.5824 209.666 59.3621 208.996 58.8748C208.338 58.387 207.991 57.7236 207.954 56.8844C207.918 56.0452 208.194 55.3604 208.784 54.8302C209.373 54.288 210.332 53.9879 211.663 53.9298L214.397 53.8104L214.382 53.4688C214.349 52.7255 214.109 52.1654 213.66 51.7887C213.211 51.4119 212.567 51.2418 211.728 51.2784C211.164 51.303 210.617 51.423 210.086 51.6384C209.554 51.8418 209.109 52.1074 208.751 52.4354L207.975 51.172C208.45 50.7549 209.024 50.4296 209.698 50.1959C210.372 49.9503 211.093 49.8107 211.86 49.7772ZM211.831 58.1925C212.491 58.1637 213.054 57.995 213.521 57.6863C213.987 57.3657 214.317 56.9309 214.509 56.382L214.451 55.0513L211.789 55.1675C210.327 55.2313 209.617 55.7548 209.66 56.7378C209.681 57.2174 209.883 57.5869 210.267 57.8464C210.65 58.1059 211.172 58.2213 211.831 58.1925ZM227.399 49.1889L223.235 59.8747C222.87 60.8635 222.421 61.5678 221.886 61.9875C221.364 62.4067 220.719 62.633 219.952 62.6665C219.485 62.6869 219.026 62.6289 218.575 62.4924C218.137 62.3674 217.768 62.1673 217.468 61.8921L218.149 60.5652C218.661 61.0113 219.24 61.2202 219.888 61.1919C220.307 61.1736 220.65 61.0445 220.916 60.8047C221.194 60.5764 221.435 60.1875 221.64 59.638L221.916 58.9593L217.293 49.6301L219.091 49.5516L222.751 57.0311L225.709 49.2627L227.399 49.1889Z" fill="#9C9C9C"/>
<circle cx="592.5" cy="33.5" r="7.5" fill="#E43F5A" fill-opacity="0.75"/>
<circle cx="570.5" cy="34.5" r="7.5" fill="#00AC30" fill-opacity="0.75"/>
<circle cx="547.5" cy="35.5" r="7.5" fill="#F8B24F" fill-opacity="0.75"/>
<defs>
<filter id="filter0_d" x="0.875673" y="0.441467" width="643.814" height="532.985" filterUnits="userSpaceOnUse" color-interpolation-filters="sRGB">
<feFlood flood-opacity="0" result="BackgroundImageFix"/>
<feColorMatrix in="SourceAlpha" type="matrix" values="0 0 0 0 0 0 0 0 0 0 0 0 0 0 0 0 0 0 127 0"/>
<feOffset dy="20"/>
<feGaussianBlur stdDeviation="15"/>
<feColorMatrix type="matrix" values="0 0 0 0 0 0 0 0 0 0 0 0 0 0 0 0 0 0 0.05 0"/>
<feBlend mode="normal" in2="BackgroundImageFix" result="effect1_dropShadow"/>
<feBlend mode="normal" in="SourceGraphic" in2="effect1_dropShadow" result="shape"/>
</filter>
</defs>
</svg>
